Coordinates
version=1
nRows=11
nColumns=63
inDegrees=yes

Units are S.I. units (second, meters, Newtons, ...)
If the header above contains a line with 'inDegrees', this indicates whether rotational values are in degrees (yes) or radians (no).

endheader
time	pelvis_tilt	pelvis_list	pelvis_rotation	pelvis_tx	pelvis_ty	pelvis_tz	hip_flexion_r	hip_adduction_r	hip_rotation_r	knee_angle_r	knee_angle_r_beta	ankle_angle_r	subtalar_angle_r	mtp_angle_r	hip_flexion_l	hip_adduction_l	hip_rotation_l	knee_angle_l	knee_angle_l_beta	ankle_angle_l	subtalar_angle_l	mtp_angle_l	L5_S1_Flex_Ext	L5_S1_Lat_Bending	L5_S1_axial_rotation	L4_L5_Flex_Ext	L4_L5_Lat_Bending	L4_L5_axial_rotation	L3_L4_Flex_Ext	L3_L4_Lat_Bending	L3_L4_axial_rotation	L2_L3_Flex_Ext	L2_L3_Lat_Bending	L2_L3_axial_rotation	L1_L2_Flex_Ext	L1_L2_Lat_Bending	L1_L2_axial_rotation	L1_T12_Flex_Ext	L1_T12_Lat_Bending	L1_T12_axial_rotation	Abs_r3	Abs_r2	Abs_r1	Abs_t1	Abs_t2	neck_flexion	neck_bending	neck_rotation	arm_flex_r	arm_add_r	arm_rot_r	elbow_flex_r	pro_sup_r	wrist_flex_r	wrist_dev_r	arm_flex_l	arm_add_l	arm_rot_l	elbow_flex_l	pro_sup_l	wrist_flex_l	wrist_dev_l
3.900000	0.209128	-1.553398	87.153230	0.148368	0.991576	0.526203	-0.677565	-1.032812	-12.032056	15.110238	0.263723	27.717750	11.216612	0.000000	-1.236712	-1.168216	-7.761480	11.204405	0.195554	27.434666	14.253584	0.000000	0.066968	0.199245	0.380375	0.124365	0.264995	0.404149	0.110021	0.484443	0.404149	0.076537	0.484443	0.332828	0.062186	0.406300	0.309055	0.038265	0.308630	0.285281	0.478342	2.253895	2.115533	0.000000	0.000000	22.054403	-9.860944	-1.266115	-5.752788	-13.260294	4.431217	32.371005	83.578218	-3.760323	2.640833	62.924225	-9.222497	14.718350	132.854017	87.525199	8.782064	23.902688
3.916667	0.234138	-1.509594	87.370545	0.148002	0.991628	0.525847	-0.814536	-1.019722	-12.383963	15.019934	0.262147	27.731366	11.391343	0.000000	-1.278876	-1.194625	-7.631428	11.200446	0.195485	27.438140	14.324378	0.000000	0.068910	0.202766	0.352883	0.127973	0.269679	0.374938	0.113213	0.493006	0.374938	0.078758	0.493006	0.308772	0.063990	0.413481	0.286717	0.039375	0.314085	0.264662	0.492219	2.293731	1.962628	0.000000	0.000000	22.173329	-9.837517	-1.225145	-5.866856	-13.272521	4.268302	32.452137	83.785355	-3.756753	2.727259	62.883411	-9.108430	14.678796	132.826008	87.623858	8.971021	24.160725
3.933333	0.260734	-1.448278	87.634317	0.147599	0.991715	0.525525	-0.977185	-0.990871	-12.701341	14.921721	0.260433	27.711424	11.458431	0.000000	-1.329015	-1.234054	-7.534453	11.202629	0.195523	27.437258	14.512202	0.000000	0.068022	0.205952	0.319810	0.126323	0.273916	0.339798	0.111753	0.500751	0.339798	0.077742	0.500751	0.279833	0.063165	0.419977	0.259845	0.038868	0.319019	0.239857	0.485873	2.329766	1.778685	0.000000	0.000000	22.220435	-9.790249	-1.233912	-5.953792	-13.325960	4.341375	32.507537	83.959765	-3.884070	2.762215	62.860036	-9.011827	14.688382	132.819191	87.635178	9.030875	24.472560
3.950000	0.283035	-1.376249	87.910103	0.147181	0.991813	0.525204	-1.152356	-0.969132	-13.043976	14.833136	0.258887	27.686908	11.551319	0.000000	-1.390510	-1.273903	-7.473409	11.203988	0.195546	27.424637	14.769333	0.000000	0.065979	0.208765	0.289143	0.122529	0.277658	0.307214	0.108396	0.507592	0.307214	0.075407	0.507592	0.253000	0.061268	0.425714	0.234929	0.037700	0.323378	0.216857	0.471279	2.361596	1.608125	0.000000	0.000000	22.182221	-9.691489	-1.261583	-6.059932	-13.380718	4.423986	32.559873	84.225311	-4.055529	2.767298	62.847114	-8.903366	14.714969	132.834610	87.562356	9.043394	24.880675
3.966667	0.310891	-1.308440	88.167344	0.146788	0.991895	0.524914	-1.309988	-0.934123	-13.302033	14.767002	0.257733	27.638350	11.551200	0.000000	-1.450021	-1.313229	-7.358999	11.199998	0.195477	27.405595	14.942873	0.000000	0.064036	0.212702	0.268059	0.118921	0.282894	0.284813	0.105205	0.517164	0.284813	0.073187	0.517164	0.234552	0.059464	0.433742	0.217798	0.036590	0.329476	0.201045	0.457403	2.406129	1.490866	0.000000	0.000000	22.119845	-9.594838	-1.292482	-6.195908	-13.433831	4.473760	32.601133	84.447390	-4.225840	2.730649	62.851438	-8.785924	14.776919	132.895816	87.559084	8.944345	25.441607
3.983333	0.340087	-1.239514	88.427929	0.146383	0.991971	0.524645	-1.463245	-0.896734	-13.547926	14.718444	0.256885	27.578096	11.516917	0.000000	-1.511954	-1.350966	-7.205235	11.190804	0.195316	27.378796	15.080264	0.000000	0.061429	0.217144	0.249460	0.114080	0.288802	0.265051	0.100922	0.527965	0.265051	0.070207	0.527965	0.218277	0.057043	0.442801	0.202686	0.035100	0.336356	0.187095	0.438780	2.456379	1.387421	0.000000	0.000000	22.041446	-9.495307	-1.320623	-6.350366	-13.486019	4.509274	32.623264	84.640654	-4.400969	2.647989	62.859753	-8.665805	14.862753	132.991715	87.525528	8.727929	26.088546
4.000000	0.367883	-1.169013	88.675569	0.146015	0.992052	0.524424	-1.608967	-0.854314	-13.729430	14.684147	0.256287	27.504993	11.397843	0.000000	-1.574359	-1.388631	-7.061024	11.180569	0.195138	27.346940	15.220744	0.000000	0.057756	0.221197	0.231885	0.107258	0.294192	0.246378	0.094887	0.537818	0.246378	0.066009	0.537818	0.202899	0.053632	0.451065	0.188406	0.033002	0.342634	0.173914	0.412543	2.502223	1.289674	0.000000	0.000000	21.945735	-9.411208	-1.355172	-6.482894	-13.542047	4.612755	32.592880	84.691921	-4.566414	2.584628	62.868627	-8.570488	14.976196	133.113030	87.478166	8.392614	26.725660
4.016667	0.399941	-1.109913	88.906216	0.145663	0.992105	0.524229	-1.729794	-0.802009	-13.843004	14.670785	0.256054	27.423086	11.185252	0.000000	-1.626295	-1.426707	-6.889426	11.165387	0.194873	27.311425	15.306052	0.000000	0.054678	0.225999	0.222406	0.101542	0.300578	0.236306	0.089830	0.549493	0.236306	0.062491	0.549493	0.194605	0.050774	0.460856	0.180705	0.031243	0.350072	0.166804	0.390559	2.556542	1.236954	0.000000	0.000000	21.848588	-9.344207	-1.421392	-6.673963	-13.572994	4.564760	32.588460	84.788400	-4.723579	2.483755	62.882935	-8.445871	15.106697	133.270091	87.389472	7.967721	27.491124
4.033333	0.423135	-1.052519	89.112757	0.145344	0.992159	0.524104	-1.834439	-0.760076	-13.924695	14.674506	0.256118	27.348940	10.948097	0.000000	-1.675904	-1.451395	-6.707478	11.143129	0.194484	27.262526	15.342943	0.000000	0.050397	0.229969	0.213555	0.093592	0.305859	0.226903	0.082797	0.559147	0.226903	0.057598	0.559147	0.186861	0.046798	0.468953	0.173514	0.028797	0.356222	0.160167	0.359978	2.601457	1.187731	0.000000	0.000000	21.724853	-9.274771	-1.475642	-6.842938	-13.596648	4.518189	32.544617	84.859725	-4.808094	2.428461	62.897889	-8.347257	15.232619	133.455843	87.275523	7.500614	28.287857
4.050000	0.443812	-1.001842	89.273679	0.145096	0.992190	0.524027	-1.916277	-0.716917	-13.921340	14.692410	0.256431	27.289151	10.648219	0.000000	-1.721839	-1.472227	-6.560320	11.114053	0.193977	27.226711	15.371142	0.000000	0.046025	0.233595	0.212161	0.085474	0.310681	0.225422	0.075615	0.567963	0.225422	0.052602	0.567963	0.185641	0.042739	0.476347	0.172381	0.026299	0.361838	0.159121	0.328755	2.642472	1.179978	0.000000	0.000000	21.574862	-9.221567	-1.567012	-7.016157	-13.580025	4.311256	32.473270	85.037281	-4.832247	2.438691	62.918345	-8.255002	15.384328	133.673458	87.125466	6.852999	29.201525
4.066667	0.460519	-0.950457	89.412711	0.144891	0.992218	0.524026	-1.988960	-0.678255	-13.905167	14.713974	0.256807	27.247742	10.360024	0.000000	-1.761439	-1.489573	-6.433312	11.089545	0.193549	27.202069	15.390652	0.000000	0.040874	0.237131	0.207423	0.075908	0.315384	0.220387	0.067152	0.576560	0.220387	0.046715	0.576560	0.181495	0.037956	0.483557	0.168531	0.023356	0.367316	0.155567	0.291962	2.682470	1.153625	0.000000	0.000000	21.377956	-9.143571	-1.604643	-7.144175	-13.551023	4.116133	32.335176	85.224680	-4.795481	2.509267	62.932171	-8.190549	15.476944	133.886038	86.965209	6.324578	30.080536
